<svg id="Sèmè_City_Logo" data-name="Sèmè City Logo" xmlns="http://www.w3.org/2000/svg" viewBox="0 0 269.5 283.5"><title>Logo_colour</title><polygon points="221 37.6 269.5 86.1 172.5 86.1 221 37.6" style="fill:#79c6c0"/><polygon points="221 166.3 269.5 117.8 172.5 117.8 221 166.3" style="fill:#79c6c0"/><polygon points="48.5 37.6 97 86.1 0 86.1 48.5 37.6" style="fill:#79c6c0"/><polygon points="48.5 166.3 97 117.8 0 117.8 48.5 166.3" style="fill:#79c6c0"/><polygon points="134.9 153.7 183.4 202.2 86.4 202.2 134.9 153.7" style="fill:#004c99"/><polygon points="134.9 48.5 183.4 0 86.4 0 134.9 48.5" style="fill:#004c99"/><polygon points="165.6 101.8 134.9 132.5 134.9 71 165.6 101.8" style="fill:#ffd500"/><polygon points="104.1 101.8 134.9 132.5 134.9 71 104.1 101.8" style="fill:#db9506"/><path d="M72.3,349l4.3-5.1c3,2.4,6,4,9.8,4s4.7-1.2,4.7-3.1h0c0-1.8-1.1-2.8-6.6-4.2s-10.8-3.5-10.8-10h0c0-5.9,4.7-9.9,11.4-9.9a18.8,18.8,0,0,1,12.2,4.2l-3.7,5.4c-3-2-5.8-3.2-8.6-3.2s-4.2,1.3-4.2,2.9h0c0,2.2,1.4,2.9,7.1,4.4s10.4,4.1,10.4,9.8h0c0,6.5-5,10.1-12.1,10.1A21.1,21.1,0,0,1,72.3,349Z" transform="translate(-70.9 -70.9)" style="fill:#004c99"/><path d="M105.5,321h24.7v6.4H112.7v6.7h15.4v6.4H112.7v6.9h17.8v6.4h-25Zm9.9-2.6-6.3-4.7,6.1-2.6,5.7,7.3Z" transform="translate(-70.9 -70.9)" style="fill:#004c99"/><path d="M137.8,321h7.8l8.6,13.9,8.6-13.9h7.8v32.8h-7.2V332.4l-9.2,14H154l-9.1-13.9v21.3h-7.1Z" transform="translate(-70.9 -70.9)" style="fill:#004c99"/><path d="M179.4,321h24.7v6.4H186.6v6.7H202v6.4H186.6v6.9h17.7v6.4H179.4Zm9.9-2.6-6.3-4.7,6.1-2.6,5.7,7.3Z" transform="translate(-70.9 -70.9)" style="fill:#004c99"/><path d="M225.2,337.5h0a16.8,16.8,0,0,1,17.1-17c6.2,0,9.9,2.1,13,5.1l-4.6,5.3c-2.6-2.3-5.1-3.7-8.4-3.7-5.5,0-9.5,4.6-9.5,10.2h0c0,5.6,3.9,10.3,9.5,10.3,3.7,0,6-1.5,8.6-3.9l4.6,4.7c-3.4,3.6-7.1,5.8-13.5,5.8A16.5,16.5,0,0,1,225.2,337.5Z" transform="translate(-70.9 -70.9)" style="fill:#004c99"/><path d="M262.5,321h7.2v32.8h-7.2Z" transform="translate(-70.9 -70.9)" style="fill:#004c99"/><path d="M286.5,327.6h-10V321h27.2v6.6h-10v26.2h-7.2Z" transform="translate(-70.9 -70.9)" style="fill:#004c99"/><path d="M319.4,340.8,306.8,321h8.4l7.8,13.2,8-13.2h8.2l-12.6,19.7v13.1h-7.2Z" transform="translate(-70.9 -70.9)" style="fill:#004c99"/></svg>